ffmpeg started on 2025-06-23 at 21:04:17
Report written to "D:\Convert\FFMetrics\reports\psnr_report-6.txt"
Log level: 32
Command line:
ffmpeg -hide_banner -nostdin -i "G:\\\xc0\xed\xe8\xec\xe5\\[\xd2\xee\xef-4]\\\xcc\xee\xe6\xe5\xf2, \xff \xe2\xf1\xf2\xf0\xe5\xf7\xf3 \xf2\xe5\xe1\xff \xe2 \xef\xee\xe4\xe7\xe5\xec\xe5\xeb\xfc\xe5\\\xd2\xc2-2\\Danmachi_Sword_Oratoria_[05]_[AniLibria_TV]_[HDTV-Rip]_HEVC.mkv" -i "G:\\\xc0\xed\xe8\xec\xe5\\[\xd2\xee\xef-4]\\\xcc\xee\xe6\xe5\xf2, \xff \xe2\xf1\xf2\xf0\xe5\xf7\xf3 \xf2\xe5\xe1\xff \xe2 \xef\xee\xe4\xe7\xe5\xec\xe5\xeb\xfc\xe5\\\xd2\xc2-2\\Danmachi_Sword_Oratoria_[05]_[AniLibria_TV]_[HDTV-Rip].mkv" -lavfi "[0:v]settb=AVTB,setpts=PTS-STARTPTS,format=pix_fmts=yuv420p10,fps=24000/1001,scale=1280:720:flags=bicubic[main];[1:v]settb=AVTB,setpts=PTS-STARTPTS,format=pix_fmts=yuv420p,fps=24000/1001,scale=1280:720:flags=bicubic[ref];[main][ref]psnr=eof_action=endall:stats_file='D\\:/Convert/FFMetrics/logs/psnr_logfile-6.txt'" -f null -
Input #0, matroska,webm, from 'G:\Аниме\[Топ-4]\Может, я встречу тебя в подземелье\ТВ-2\Danmachi_Sword_Oratoria_[05]_[AniLibria_TV]_[HDTV-Rip]_HEVC.mkv':
  Metadata:
    ENCODER         : Lavf61.7.100
  Duration: 00:23:59.69, start: -0.021000, bitrate: 750 kb/s
  Stream #0:0(jpn): Video: hevc (Main 10), yuv420p10le(tv, bt709, progressive), 1280x720 [SAR 1:1 DAR 16:9], 23.98 fps, 23.98 tbr, 1k tbn (default) (forced)
      Metadata:
        title           : Original
        ENCODER         : Lavc61.19.100 libx265
        BPS             : 552304
        DURATION        : 00:23:59.688708333
        NUMBER_OF_FRAMES: 34518
        NUMBER_OF_BYTES : 99393258
        _STATISTICS_WRITING_APP: mkvpropedit v66.0.0 ('Josie') 64-bit
        _STATISTICS_WRITING_DATE_UTC: 2025-06-23 10:34:00
        _STATISTICS_TAGS: BPS DURATION NUMBER_OF_FRAMES NUMBER_OF_BYTES
  Stream #0:1(rus): Audio: aac (LC), 48000 Hz, stereo, fltp (default) (forced)
      Metadata:
        title           : Leeannushka & Sharon
        ENCODER         : Lavc61.19.100 aac
        BPS             : 193911
        DURATION        : 00:23:59.658000000
        NUMBER_OF_FRAMES: 67485
        NUMBER_OF_BYTES : 34895848
        _STATISTICS_WRITING_APP: mkvpropedit v66.0.0 ('Josie') 64-bit
        _STATISTICS_WRITING_DATE_UTC: 2025-06-23 10:34:00
        _STATISTICS_TAGS: BPS DURATION NUMBER_OF_FRAMES NUMBER_OF_BYTES
  Stream #0:2(rus): Subtitle: ass (ssa) (default) (forced)
      Metadata:
        title           : Надписи
        BPS             : 68
        DURATION        : 00:22:22.990000000
        NUMBER_OF_FRAMES: 37
        NUMBER_OF_BYTES : 11419
        _STATISTICS_WRITING_APP: mkvpropedit v66.0.0 ('Josie') 64-bit
        _STATISTICS_WRITING_DATE_UTC: 2025-06-23 10:34:00
        _STATISTICS_TAGS: BPS DURATION NUMBER_OF_FRAMES NUMBER_OF_BYTES
  Stream #0:3(rus): Subtitle: ass (ssa)
      Metadata:
        title           : Субтитры
        BPS             : 166
        DURATION        : 00:23:43.950000000
        NUMBER_OF_FRAMES: 287
        NUMBER_OF_BYTES : 29571
        _STATISTICS_WRITING_APP: mkvpropedit v66.0.0 ('Josie') 64-bit
        _STATISTICS_WRITING_DATE_UTC: 2025-06-23 10:34:00
        _STATISTICS_TAGS: BPS DURATION NUMBER_OF_FRAMES NUMBER_OF_BYTES
Input #1, matroska,webm, from 'G:\Аниме\[Топ-4]\Может, я встречу тебя в подземелье\ТВ-2\Danmachi_Sword_Oratoria_[05]_[AniLibria_TV]_[HDTV-Rip].mkv':
  Metadata:
    encoder         : libebml v1.4.2 + libmatroska v1.6.4
    creation_time   : 2025-01-14T16:51:33.000000Z
  Duration: 00:23:59.69, start: 0.000000, bitrate: 2449 kb/s
  Stream #1:0(jpn): Video: h264 (High), yuv420p(tv, bt709, progressive), 1280x720 [SAR 1:1 DAR 16:9], 23.98 fps, 23.98 tbr, 1k tbn (default) (forced)
      Metadata:
        title           : Original
        BPS             : 2252006
        DURATION        : 00:23:59.689000000
        NUMBER_OF_FRAMES: 34518
        NUMBER_OF_BYTES : 405273599
        _STATISTICS_WRITING_APP: mkvmerge v66.0.0 ('Josie') 64-bit
        _STATISTICS_WRITING_DATE_UTC: 2025-01-14 16:51:33
        _STATISTICS_TAGS: BPS DURATION NUMBER_OF_FRAMES NUMBER_OF_BYTES
  Stream #1:1(rus): Audio: aac (LC), 48000 Hz, stereo, fltp (default) (forced)
      Metadata:
        title           : Leeannushka & Sharon
        BPS             : 192099
        DURATION        : 00:23:59.658000000
        NUMBER_OF_FRAMES: 67484
        NUMBER_OF_BYTES : 34569765
        _STATISTICS_WRITING_APP: mkvmerge v66.0.0 ('Josie') 64-bit
        _STATISTICS_WRITING_DATE_UTC: 2025-01-14 16:51:33
        _STATISTICS_TAGS: BPS DURATION NUMBER_OF_FRAMES NUMBER_OF_BYTES
  Stream #1:2(rus): Subtitle: ass (ssa) (default) (forced)
      Metadata:
        title           : Надписи
        BPS             : 68
        DURATION        : 00:22:22.990000000
        NUMBER_OF_FRAMES: 37
        NUMBER_OF_BYTES : 11419
        _STATISTICS_WRITING_APP: mkvmerge v66.0.0 ('Josie') 64-bit
        _STATISTICS_WRITING_DATE_UTC: 2025-01-14 16:51:33
        _STATISTICS_TAGS: BPS DURATION NUMBER_OF_FRAMES NUMBER_OF_BYTES
  Stream #1:3(rus): Subtitle: ass (ssa)
      Metadata:
        title           : Субтитры
        BPS             : 166
        DURATION        : 00:23:43.950000000
        NUMBER_OF_FRAMES: 287
        NUMBER_OF_BYTES : 29571
        _STATISTICS_WRITING_APP: mkvmerge v66.0.0 ('Josie') 64-bit
        _STATISTICS_WRITING_DATE_UTC: 2025-01-14 16:51:33
        _STATISTICS_TAGS: BPS DURATION NUMBER_OF_FRAMES NUMBER_OF_BYTES
  Stream #1:4: Attachment: ttf
      Metadata:
        filename        : 10323.ttf
        mimetype        : application/x-truetype-font
  Stream #1:5: Attachment: ttf
      Metadata:
        filename        : 9808.ttf
        mimetype        : application/x-truetype-font
  Stream #1:6: Attachment: ttf
      Metadata:
        filename        : 10119.ttf
        mimetype        : application/x-truetype-font
Stream mapping:
  Stream #0:0 (hevc) -> settb:default
  Stream #1:0 (h264) -> settb:default
  psnr:default -> Stream #0:0 (wrapped_avframe)
  Stream #0:1 -> #0:1 (aac (native) -> pcm_s16le (native))
Output #0, null, to 'pipe:':
  Metadata:
    encoder         : Lavf61.7.100
  Stream #0:0: Video: wrapped_avframe, yuv420p10le(tv, bt709, progressive), 1280x720 [SAR 1:1 DAR 16:9], q=2-31, 200 kb/s, 23.98 fps, 23.98 tbn
      Metadata:
        encoder         : Lavc61.19.100 wrapped_avframe
  Stream #0:1(rus): Audio: pcm_s16le, 48000 Hz, stereo, s16, 1536 kb/s (default) (forced)
      Metadata:
        title           : Leeannushka & Sharon
        _STATISTICS_TAGS: BPS DURATION NUMBER_OF_FRAMES NUMBER_OF_BYTES
        BPS             : 193911
        DURATION        : 00:23:59.658000000
        NUMBER_OF_FRAMES: 67485
        NUMBER_OF_BYTES : 34895848
        _STATISTICS_WRITING_APP: mkvpropedit v66.0.0 ('Josie') 64-bit
        _STATISTICS_WRITING_DATE_UTC: 2025-06-23 10:34:00
        encoder         : Lavc61.19.100 pcm_s16le
frame=  512 fps=0.0 q=-0.0 size=N/A time=00:00:21.35 bitrate=N/A speed=41.5x    frame= 1059 fps=1033 q=-0.0 size=N/A time=00:00:44.16 bitrate=N/A speed=43.1x    frame= 1602 fps=1033 q=-0.0 size=N/A time=00:01:06.81 bitrate=N/A speed=43.1x    frame= 2037 fps=988 q=-0.0 size=N/A time=00:01:24.95 bitrate=N/A speed=41.2x    frame= 2446 fps=946 q=-0.0 size=N/A time=00:01:42.01 bitrate=N/A speed=39.4x    frame= 2833 fps=915 q=-0.0 size=N/A time=00:01:58.15 bitrate=N/A speed=38.1x    frame= 3233 fps=896 q=-0.0 size=N/A time=00:02:14.84 bitrate=N/A speed=37.4x    frame= 3627 fps=881 q=-0.0 size=N/A time=00:02:31.27 bitrate=N/A speed=36.7x    frame= 3928 fps=846 q=-0.0 size=N/A time=00:02:43.83 bitrate=N/A speed=35.3x    frame= 4424 fps=858 q=-0.0 size=N/A time=00:03:04.51 bitrate=N/A speed=35.8x    frame= 4823 fps=851 q=-0.0 size=N/A time=00:03:21.15 bitrate=N/A speed=35.5x    frame= 5331 fps=861 q=-0.0 size=N/A time=00:03:42.34 bitrate=N/A speed=35.9x    frame= 5794 fps=864 q=-0.0 size=N/A time=00:04:01.65 bitrate=N/A speed=36.1x    frame= 6359 fps=882 q=-0.0 size=N/A time=00:04:25.22 bitrate=N/A speed=36.8x    frame= 6822 fps=882 q=-0.0 size=N/A time=00:04:44.53 bitrate=N/A speed=36.8x    frame= 7355 fps=892 q=-0.0 size=N/A time=00:05:06.76 bitrate=N/A speed=37.2x    frame= 7852 fps=895 q=-0.0 size=N/A time=00:05:27.49 bitrate=N/A speed=37.3x    frame= 8370 fps=901 q=-0.0 size=N/A time=00:05:49.09 bitrate=N/A speed=37.6x    frame= 8985 fps=918 q=-0.0 size=N/A time=00:06:14.74 bitrate=N/A speed=38.3x    frame= 9493 fps=920 q=-0.0 size=N/A time=00:06:35.93 bitrate=N/A speed=38.4x    frame= 9935 fps=918 q=-0.0 size=N/A time=00:06:54.37 bitrate=N/A speed=38.3x    frame=10383 fps=915 q=-0.0 size=N/A time=00:07:13.05 bitrate=N/A speed=38.1x    frame=10837 fps=914 q=-0.0 size=N/A time=00:07:31.99 bitrate=N/A speed=38.1x    frame=11464 fps=927 q=-0.0 size=N/A time=00:07:58.14 bitrate=N/A speed=38.7x    frame=11944 fps=926 q=-0.0 size=N/A time=00:08:18.16 bitrate=N/A speed=38.6x    frame=12427 fps=927 q=-0.0 size=N/A time=00:08:38.30 bitrate=N/A speed=38.7x    frame=13121 fps=943 q=-0.0 size=N/A time=00:09:07.25 bitrate=N/A speed=39.3x    frame=13756 fps=952 q=-0.0 size=N/A time=00:09:33.73 bitrate=N/A speed=39.7x    frame=14281 fps=955 q=-0.0 size=N/A time=00:09:55.63 bitrate=N/A speed=39.8x    frame=14687 fps=950 q=-0.0 size=N/A time=00:10:12.57 bitrate=N/A speed=39.6x    frame=15163 fps=948 q=-0.0 size=N/A time=00:10:32.42 bitrate=N/A speed=39.6x    frame=15657 fps=949 q=-0.0 size=N/A time=00:10:53.02 bitrate=N/A speed=39.6x    frame=16169 fps=951 q=-0.0 size=N/A time=00:11:14.38 bitrate=N/A speed=39.6x    frame=16708 fps=953 q=-0.0 size=N/A time=00:11:36.86 bitrate=N/A speed=39.7x    frame=17209 fps=954 q=-0.0 size=N/A time=00:11:57.75 bitrate=N/A speed=39.8x    frame=17643 fps=950 q=-0.0 size=N/A time=00:12:15.86 bitrate=N/A speed=39.6x    frame=18141 fps=950 q=-0.0 size=N/A time=00:12:36.63 bitrate=N/A speed=39.6x    frame=18671 fps=952 q=-0.0 size=N/A time=00:12:58.73 bitrate=N/A speed=39.7x    frame=19241 fps=956 q=-0.0 size=N/A time=00:13:22.51 bitrate=N/A speed=39.9x    frame=19736 fps=956 q=-0.0 size=N/A time=00:13:43.15 bitrate=N/A speed=39.9x    frame=20301 fps=959 q=-0.0 size=N/A time=00:14:06.72 bitrate=N/A speed=  40x    frame=20817 fps=960 q=-0.0 size=N/A time=00:14:28.24 bitrate=N/A speed=40.1x    frame=21463 fps=968 q=-0.0 size=N/A time=00:14:55.18 bitrate=N/A speed=40.4x    frame=22118 fps=974 q=-0.0 size=N/A time=00:15:22.50 bitrate=N/A speed=40.6x    frame=22767 fps=981 q=-0.0 size=N/A time=00:15:49.57 bitrate=N/A speed=40.9x    frame=23303 fps=982 q=-0.0 size=N/A time=00:16:11.92 bitrate=N/A speed=40.9x    frame=23883 fps=985 q=-0.0 size=N/A time=00:16:36.12 bitrate=N/A speed=41.1x    frame=24391 fps=985 q=-0.0 size=N/A time=00:16:57.30 bitrate=N/A speed=41.1x    frame=24830 fps=982 q=-0.0 size=N/A time=00:17:15.61 bitrate=N/A speed=  41x    frame=25374 fps=984 q=-0.0 size=N/A time=00:17:38.30 bitrate=N/A speed=  41x    frame=25990 fps=987 q=-0.0 size=N/A time=00:18:03.99 bitrate=N/A speed=41.2x    frame=26484 fps=987 q=-0.0 size=N/A time=00:18:24.60 bitrate=N/A speed=41.2x    frame=27136 fps=992 q=-0.0 size=N/A time=00:18:51.79 bitrate=N/A speed=41.4x    frame=27807 fps=998 q=-0.0 size=N/A time=00:19:19.78 bitrate=N/A speed=41.6x    frame=28458 fps=1003 q=-0.0 size=N/A time=00:19:46.93 bitrate=N/A speed=41.8x    frame=29112 fps=1008 q=-0.0 size=N/A time=00:20:14.21 bitrate=N/A speed=  42x    frame=29571 fps=1005 q=-0.0 size=N/A time=00:20:33.35 bitrate=N/A speed=41.9x    frame=30127 fps=1007 q=-0.0 size=N/A time=00:20:56.54 bitrate=N/A speed=  42x    frame=30683 fps=1008 q=-0.0 size=N/A time=00:21:19.73 bitrate=N/A speed=42.1x    frame=31241 fps=1009 q=-0.0 size=N/A time=00:21:43.01 bitrate=N/A speed=42.1x    frame=31799 fps=1010 q=-0.0 size=N/A time=00:22:06.28 bitrate=N/A speed=42.1x    frame=32356 fps=1012 q=-0.0 size=N/A time=00:22:29.51 bitrate=N/A speed=42.2x    frame=32858 fps=1011 q=-0.0 size=N/A time=00:22:50.45 bitrate=N/A speed=42.2x    frame=33347 fps=1010 q=-0.0 size=N/A time=00:23:10.84 bitrate=N/A speed=42.1x    frame=33821 fps=1009 q=-0.0 size=N/A time=00:23:30.61 bitrate=N/A speed=42.1x    frame=34321 fps=1008 q=-0.0 size=N/A time=00:23:51.47 bitrate=N/A speed=  42x    [Parsed_psnr_10 @ 0000015b2067b440] PSNR y:46.864680 u:49.615059 v:50.376064 average:47.677081 min:38.029478 max:67.514094
[out#0/null @ 0000015b1dc3c080] video:14832KiB audio:269940KiB subtitle:0KiB other streams:0KiB global headers:0KiB muxing overhead: unknown
frame=34518 fps=1010 q=-0.0 Lsize=N/A time=00:23:59.67 bitrate=N/A speed=42.1x    
